<?xml version="1.0" standalone="no"?>
<!DOCTYPE svg PUBLIC "-//W3C//DTD SVG 20010904//EN"
 "http://www.w3.org/TR/2001/REC-SVG-20010904/DTD/svg10.dtd">
<svg version="1.0" xmlns="http://www.w3.org/2000/svg"
 width="1764.000000pt" height="1764.000000pt" viewBox="0 0 1764.000000 1764.000000"
 preserveAspectRatio="xMidYMid meet">
<metadata>
Created by potrace 1.11, written by Peter Selinger 2001-2013
</metadata>
<g transform="translate(0.000000,1764.000000) scale(0.100000,-0.100000)"
fill="#000000" stroke="none">
<path d="M9315 14653 c-75 -9 -328 -56 -400 -75 -388 -97 -750 -335 -1082
-711 -266 -302 -477 -637 -572 -910 -125 -358 -119 -917 14 -1425 123 -466
384 -925 729 -1280 l71 -72 -30 -29 c-17 -16 -831 -797 -1810 -1735 -979 -938
-1807 -1736 -1840 -1773 -33 -38 -72 -83 -88 -101 l-27 -34 -120 72 c-257 154
-500 341 -701 540 -131 130 -198 222 -388 532 -157 257 -271 373 -346 354 -44
-11 -304 -232 -458 -391 -82 -84 -213 -255 -238 -310 -21 -44 -24 -122 -9
-175 6 -19 29 -125 51 -235 130 -640 334 -1223 558 -1593 34 -57 61 -105 59
-106 -2 -2 -82 -54 -178 -117 -96 -63 -278 -189 -405 -279 -329 -234 -334
-237 -504 -345 -84 -53 -194 -117 -245 -141 -84 -40 -260 -93 -272 -82 -2 3 7
29 20 58 59 127 57 277 -4 424 -55 132 -189 233 -378 285 -114 31 -177 35
-252 16 -292 -76 -470 -267 -470 -507 0 -92 14 -145 65 -253 94 -195 297 -352
540 -416 168 -44 415 -35 609 22 142 42 430 178 621 292 161 97 679 462 1030
725 l79 60 66 -61 c323 -305 806 -527 1280 -588 282 -37 1002 18 1530 117 492
92 1031 284 1606 572 99 50 206 105 239 124 52 29 77 36 170 47 372 43 805
139 1132 252 390 134 717 323 1060 612 152 127 486 466 549 555 8 12 20 19 26
16 7 -4 8 -2 4 4 -4 7 -2 12 4 12 6 0 8 5 5 10 -3 6 -1 10 4 10 6 0 11 7 11
16 0 8 5 12 10 9 6 -3 10 3 10 14 0 12 5 21 10 21 6 0 10 7 10 15 0 8 5 15 10
15 6 0 10 7 10 15 0 8 5 15 10 15 6 0 10 9 10 20 0 11 5 20 11 20 6 0 9 7 5
15 -3 8 0 14 6 12 5 -1 12 7 14 17 1 10 8 22 15 26 6 4 9 12 5 18 -3 5 1 13
10 16 9 4 14 9 11 13 -4 3 -3 11 2 17 10 13 31 72 37 106 3 13 11 28 17 32 9
5 8 8 -3 8 -12 0 -12 2 -2 9 8 5 14 24 15 44 0 20 5 33 11 30 5 -4 7 0 3 9 -3
9 0 27 7 40 9 17 10 31 4 42 -5 9 -5 16 0 16 5 0 9 6 10 13 5 62 10 99 15 104
4 3 2 15 -4 26 -8 14 -8 18 0 13 10 -7 12 4 14 122 1 12 5 22 11 22 6 0 5 5
-2 12 -7 7 -8 17 -2 29 7 11 7 20 0 24 -6 4 -7 13 -1 23 5 10 8 32 7 50 -1 17
1 32 6 32 4 0 8 5 8 11 0 5 -5 7 -11 3 -8 -4 -8 -1 -2 12 12 24 11 45 -2 42
-8 -3 -12 -14 -17 -55 -1 -7 -5 -13 -9 -13 -5 0 -6 -7 -3 -15 4 -8 1 -15 -5
-15 -6 0 -8 -7 -4 -17 4 -10 2 -14 -4 -10 -6 4 -9 -6 -8 -23 1 -16 -2 -27 -6
-25 -4 3 -10 -2 -13 -11 -4 -9 -2 -13 5 -8 6 3 4 -5 -5 -18 -9 -14 -13 -28 -9
-31 3 -4 1 -7 -5 -7 -7 0 -12 -9 -12 -19 0 -11 -5 -23 -10 -26 -6 -4 -8 -11
-5 -16 4 -5 1 -9 -5 -9 -6 0 -8 -4 -5 -10 3 -5 1 -10 -5 -10 -6 0 -9 -4 -6 -8
3 -5 -1 -20 -9 -35 -8 -15 -11 -27 -7 -27 4 0 1 -4 -6 -9 -7 -4 -14 -18 -15
-30 -1 -12 -6 -20 -14 -17 -7 3 -10 -1 -6 -10 3 -8 -3 -24 -12 -34 -10 -11
-15 -20 -11 -20 8 0 -24 -52 -39 -62 -6 -5 -5 -8 3 -8 7 0 10 -5 7 -10 -4 -6
-10 -8 -15 -5 -4 3 -11 -2 -14 -11 -4 -10 -2 -13 7 -7 6 4 -3 -11 -20 -34 -18
-22 -33 -46 -33 -52 0 -6 -4 -11 -10 -11 -5 0 -10 -7 -10 -15 0 -8 -5 -15 -11
-15 -5 0 -7 -4 -4 -10 3 -5 -1 -10 -9 -10 -10 0 -13 -6 -9 -17 4 -10 2 -14 -4
-10 -12 8 -26 -20 -18 -34 4 -5 -1 -6 -9 -3 -9 3 -16 1 -16 -5 0 -15 -37 -51
-44 -43 -3 3 -6 -2 -6 -11 0 -9 -4 -17 -10 -17 -5 0 -10 -7 -10 -16 0 -8 -3
-13 -7 -11 -5 3 -14 -1 -21 -9 -7 -8 -10 -14 -7 -14 3 0 -11 -16 -31 -35 -19
-19 -32 -40 -29 -46 4 -6 1 -9 -7 -7 -7 2 -55 -39 -106 -90 -107 -106 -244
-222 -334 -283 -35 -23 -76 -55 -93 -70 -55 -53 -455 -299 -599 -369 -116 -55
-310 -118 -510 -165 -173 -40 -313 -56 -285 -33 9 7 18 18 20 24 2 6 48 47
101 90 178 144 492 432 753 690 123 121 235 263 364 458 74 112 222 368 225
389 1 7 6 18 10 26 7 11 6 12 -5 6 -11 -7 -12 -6 -2 6 6 8 11 16 11 19 -1 3 7
32 17 65 10 33 18 63 17 68 -1 4 2 7 7 7 11 0 26 40 22 55 -1 6 0 7 4 3 9 -8
68 72 90 122 33 72 104 300 129 412 50 222 56 417 21 633 -86 529 -431 1118
-955 1630 -67 65 -99 104 -93 111 4 6 75 92 156 190 875 1056 1457 2015 1562
2579 26 136 17 405 -18 536 -92 352 -275 570 -588 699 -102 43 -277 87 -415
105 -105 14 -443 19 -529 8z m73 -424 c692 -75 1011 -417 882 -947 -91 -374
-440 -974 -1010 -1737 -166 -223 -505 -650 -534 -674 -16 -13 -28 -3 -136 108
-365 374 -619 815 -711 1233 -30 138 -37 391 -14 528 65 392 157 640 315 852
75 99 266 304 358 384 98 84 179 133 287 175 195 76 368 100 563 78z m-843
-4520 c433 -324 725 -738 812 -1149 29 -141 24 -363 -14 -585 -104 -604 -246
-966 -521 -1330 -223 -295 -607 -644 -1029 -938 l-83 -57 -207 10 c-845 42
-1518 160 -2036 356 -309 118 -776 346 -765 374 2 4 835 775 1852 1714 l1850
1706 25 -17 c14 -9 67 -46 116 -84z m-5649 -3050 c34 -39 256 -221 389 -319
433 -323 879 -564 1361 -735 500 -178 1211 -342 1867 -432 127 -17 128 -17 91
-30 -77 -27 -440 -114 -592 -142 -478 -89 -901 -104 -1262 -45 -493 81 -867
275 -1205 625 -163 169 -320 381 -448 604 -50 87 -194 384 -221 453 -17 46
-10 54 20 21z"/>
<path d="M12963 10132 c-6 -4 -753 -1303 -1659 -2887 -906 -1584 -1653 -2886
-1660 -2894 -10 -11 -18 -10 -46 10 -18 13 -38 28 -44 34 -6 5 -44 26 -85 45
-41 19 -75 38 -77 42 -2 4 -60 26 -130 49 -70 23 -132 45 -137 50 -17 13 -246
57 -385 74 -165 20 -525 20 -690 0 -139 -17 -368 -61 -385 -74 -5 -5 -67 -27
-137 -50 -70 -23 -128 -45 -130 -49 -2 -4 -36 -23 -77 -42 -41 -19 -79 -40
-85 -46 -6 -5 -34 -26 -63 -45 -61 -41 -166 -140 -206 -196 -16 -21 -45 -71
-65 -112 l-37 -75 0 -141 0 -141 37 -75 c20 -41 49 -91 65 -112 40 -56 145
-155 206 -196 29 -19 57 -40 63 -45 6 -6 44 -27 85 -46 41 -19 75 -38 77 -42
2 -4 60 -26 130 -49 70 -23 132 -45 137 -50 17 -13 246 -57 385 -74 165 -20
525 -20 690 0 139 17 368 61 385 74 5 5 67 27 137 50 70 23 128 45 130 49 2 4
36 23 77 42 41 19 79 40 85 46 6 5 34 26 63 45 61 41 166 140 206 196 56 76
100 180 106 251 6 61 8 65 19 45 20 -35 32 -27 32 21 0 40 122 256 1406 2477
773 1339 1408 2437 1412 2440 6 6 3573 -30 3580 -36 3 -2 -2575 -4375 -2588
-4389 -5 -5 -29 11 -55 35 -67 63 -126 103 -234 158 -170 86 -263 109 -584
146 -292 33 -601 38 -782 12 -151 -22 -366 -65 -380 -76 -5 -5 -61 -25 -124
-46 -62 -21 -175 -70 -249 -109 -119 -62 -147 -82 -217 -152 -97 -99 -126
-137 -173 -232 -33 -69 -36 -83 -45 -208 -8 -116 -7 -141 8 -189 10 -31 23
-54 29 -52 6 2 25 -17 41 -43 58 -91 71 -106 135 -165 130 -118 291 -210 473
-271 61 -20 117 -40 122 -45 17 -13 246 -57 385 -74 165 -20 525 -20 690 0
139 17 368 61 385 74 5 5 60 25 122 45 119 40 282 121 372 186 49 36 133 115
206 193 24 26 3641 6242 3706 6370 17 33 18 46 10 113 -11 86 -29 114 -96 145
-39 18 -124 19 -2300 19 -1243 0 -2265 -4 -2272 -8z"/>
</g>
</svg>
